<svg xmlns="http://www.w3.org/2000/svg" height="24" viewBox="0 96 960 960" width="24"><path d="M54.5 883V777q0-33 16.75-60.25t45.272-41.761Q177.5 645 240 629.75q62.5-15.25 126-15.25t125.75 15.25Q554 645 614.978 674.989 643.5 689.5 660.25 716.75 677 744 677 777v106H54.5Zm701 0V770q0-43.5-24.25-82.25T663 621.5q48.5 6 91.25 19.75t80.25 34.25Q869 694 887.25 718t18.25 52v113h-150ZM366 577q-64 0-109-45t-45-109q0-64 45-109t109-45q64 0 109 45t45 109q0 64-45 109t-109 45Zm382-154.5q0 63.525-45 108.763Q658 576.5 594 576.5q-9.5 0-25.178-2.344T543 569q26.518-30.691 40.759-68.095Q598 463.5 598 422.75t-14.25-78.5Q569.5 306.5 543 276q12.5-4.5 25.5-5.75T594 269q64 0 109 45.091 45 45.09 45 108.409ZM129.5 808H602v-31q0-11.19-5.5-20.345t-15-14.155Q528 716 474.325 702.75 420.651 689.5 366 689.5q-54.819 0-108.66 13.25Q203.5 716 150 742.5q-9.5 5-15 14.155T129.5 777v31Zm236.438-306q32.562 0 55.812-23.188t23.25-55.75q0-32.562-23.188-55.812T366.062 344q-32.562 0-55.812 23.188T287 422.938q0 32.562 23.188 55.812t55.75 23.25ZM366 808Zm0-385Z"/></svg>