<svg xmlns="http://www.w3.org/2000/svg" height="24" viewBox="0 96 960 960" width="24"><path d="M790 926q-124.5 0-243.75-56.5T334.5 720.75Q242 628.5 185.5 509.5T129 265.888q0-17.388 11.714-29.138Q152.429 225 170 225h155q14 0 24.25 8.5T362 256l26 136q2 12.5-.75 23.5T376 435l-94.5 96q42 72 104.25 133.75T525 774l95-94q8.5-8.5 20-12.25t24-1.75l135 27q14 3 23 13.5t9 24.5v154q0 17.571-11.714 29.286Q807.571 926 790 926ZM245.5 460l66-66-17.5-94h-88.5q4 40 13.5 80.5t26.5 79.5Zm350 349q38.5 17 79 27t81.5 13v-88l-92-19.5-68.5 67.5Zm-350-349Zm350 349Z"/></svg>