<svg xmlns="http://www.w3.org/2000/svg" height="24" viewBox="0 96 960 960" width="24"><path d="M480.118 300Q456 300 439 283.083 422 266.167 422 242q0-20.16 14.017-43.2Q450.033 175.76 480 146q29.967 29.76 43.983 52.8Q538 221.84 538 242q0 24-16.882 41-16.883 17-41 17Zm-196 0Q260 300 243 283.083 226 266.167 226 242q0-20.16 14.017-43.2Q254.033 175.76 284 146q29.967 29.76 43.983 52.8Q342 221.84 342 242q0 24-16.882 41-16.883 17-41 17Zm392 0Q652 300 635 283.083 618 266.167 618 242q0-20.16 14.017-43.2Q646.033 175.76 676 146q29.967 29.76 43.983 52.8Q734 221.84 734 242q0 24-16.882 41-16.883 17-41 17ZM241 927v41q0 15.725-10.925 26.362Q219.15 1005 203 1005h-36q-16.15 0-27.075-10.638Q129 983.725 129 968V654.857L212 420q5.571-16.65 19.964-26.825Q246.357 383 264 383h432q17.643 0 32.036 10.175T748 420l83 234.857V968q0 15.725-10.925 26.362Q809.15 1005 793 1005h-36q-16.15 0-27.075-10.638Q719 983.725 719 968v-41H241Zm-7-347h492l-43-122H277l-43 122Zm-30 75v197-197Zm97.882 156Q326 811 343 794.118q17-16.883 17-41Q360 729 343.118 712q-16.883-17-41-17Q278 695 261 711.882q-17 16.883-17 41Q244 777 260.882 794q16.883 17 41 17Zm356 0Q682 811 699 794.118q17-16.883 17-41Q716 729 699.118 712q-16.883-17-41-17Q634 695 617 711.882q-17 16.883-17 41Q600 777 616.882 794q16.883 17 41 17ZM204 852h552V655H204v197Z"/></svg>