<svg xmlns="http://www.w3.org/2000/svg" height="24" viewBox="0 96 960 960" width="24"><path d="M284 966q-31.762 0-54.381-22.619Q207 920.763 207 889t22.619-54.381Q252.238 812 284 812q31.763 0 54.381 22.619Q361 857.237 361 889t-22.619 54.381Q315.763 966 284 966Zm391 0q-31.763 0-54.381-22.619Q598 920.763 598 889t22.619-54.381Q643.237 812 675 812t54.381 22.619Q752 857.237 752 889t-22.619 54.381Q706.763 966 675 966ZM248 337l96 200h275l110-200H248Zm-35.877-75H788.5q23 0 34.5 19.839 11.5 19.838.5 40.161l-138 249q-10 19.5-28.25 30.25T618 612H326l-45 82h471v75H284.189q-43.857 0-66.273-37.75Q195.5 693.5 216 656l54-96.781L128.118 259H50v-75h125l37.123 78ZM344 537h275-275Z"/></svg>